<?xml version="1.0" standalone="no"?>
<!DOCTYPE svg PUBLIC "-//W3C//DTD SVG 20010904//EN"
 "http://www.w3.org/TR/2001/REC-SVG-20010904/DTD/svg10.dtd">
<svg version="1.0" xmlns="http://www.w3.org/2000/svg"
 width="221.000000pt" height="221.000000pt" viewBox="0 0 221.000000 221.000000"
 preserveAspectRatio="xMidYMid meet">

<g transform="translate(0.000000,221.000000) scale(0.100000,-0.100000)"
fill="#000000" stroke="none">
<path d="M1507 1927 c-4 -10 -2 -28 4 -39 6 -11 9 -21 7 -23 -2 -3 -33 3 -68
11 -70 17 -360 26 -360 12 0 -4 -5 -8 -11 -8 -22 0 -109 -45 -109 -56 0 -21
-51 -46 -79 -41 -36 7 -55 -5 -47 -30 5 -16 -1 -24 -29 -37 -19 -9 -35 -20
-35 -24 0 -4 -25 -25 -55 -47 -30 -22 -57 -47 -60 -56 -3 -9 -18 -22 -33 -29
-15 -7 -22 -15 -14 -17 6 -3 12 -11 12 -18 0 -9 8 -12 25 -9 16 3 25 0 25 -8
0 -8 5 -6 11 5 5 9 15 17 22 17 7 0 25 7 41 15 37 20 45 11 18 -18 -40 -43
-23 -39 37 8 59 46 60 47 106 37 50 -11 49 -11 94 43 12 15 12 17 -8 10 -31
-9 -26 2 9 20 17 9 30 11 30 6 0 -6 7 -8 15 -5 9 4 15 0 15 -9 0 -20 30 -30
35 -12 3 8 7 22 10 31 3 9 12 14 19 11 8 -3 31 -1 52 4 27 8 49 7 83 -2 25 -7
54 -12 64 -11 9 2 17 -2 17 -7 0 -6 14 -11 30 -11 17 0 33 -6 36 -14 6 -17 59
-39 92 -39 12 0 22 -3 22 -7 0 -4 14 -7 30 -7 35 0 82 -22 74 -35 -3 -5 6 -18
20 -29 14 -11 26 -29 26 -39 0 -24 22 -41 39 -30 16 9 40 3 59 -17 11 -10 11
-20 3 -44 -9 -26 -7 -34 9 -52 11 -11 20 -28 21 -36 4 -66 9 -95 17 -100 12
-8 14 -161 2 -161 -5 0 -20 5 -34 11 -29 14 -61 -4 -52 -28 3 -7 1 -13 -4 -13
-6 0 -10 -13 -10 -30 0 -16 -4 -30 -9 -30 -5 0 -21 -24 -34 -52 -31 -68 -177
-218 -211 -218 -13 0 -35 -9 -49 -20 -30 -24 -37 -25 -37 -5 0 18 -16 20 -24
3 -3 -7 -3 -2 0 10 5 19 2 23 -12 20 -15 -3 -18 -11 -16 -45 3 -39 1 -43 -25
-50 -15 -4 -34 -6 -41 -5 -7 2 -15 -4 -18 -13 -3 -8 -13 -15 -21 -15 -9 0 -21
-7 -28 -17 -7 -9 -23 -17 -36 -18 -13 -1 -23 -8 -22 -14 4 -14 -24 -15 -32 -1
-4 6 -11 8 -16 5 -5 -4 -9 1 -9 9 0 20 -7 20 -26 1 -24 -23 -37 -18 -30 11 6
23 4 25 -11 19 -29 -12 -58 -11 -56 2 2 8 -4 10 -14 6 -10 -4 -14 -2 -9 5 3 6
-4 18 -16 26 -29 20 -44 21 -28 0 12 -13 10 -14 -16 -2 -16 7 -38 21 -48 30
-11 10 -26 18 -34 18 -9 0 -12 6 -8 16 3 8 2 12 -4 9 -6 -3 -13 1 -16 9 -3 9
-14 16 -24 16 -10 0 -25 7 -34 15 -23 23 -27 18 -20 -27 9 -52 48 -118 75
-125 10 -3 19 -14 19 -24 0 -13 7 -19 24 -19 15 0 44 -20 80 -54 48 -47 57
-52 65 -38 8 14 14 15 28 6 10 -7 17 -19 17 -28 -1 -9 4 -16 12 -16 8 0 14 -4
14 -10 0 -5 -4 -10 -9 -10 -16 0 -18 -60 -3 -73 9 -7 48 -12 102 -12 57 0 92
-5 103 -13 12 -10 31 -11 94 -2 139 19 235 48 332 102 86 48 92 52 87 65 -5
11 42 53 58 53 8 0 107 106 119 125 4 8 21 27 37 44 24 24 29 36 24 56 -5 19
-2 25 9 25 18 0 32 34 28 68 -1 12 2 22 8 22 6 0 11 9 11 20 0 11 7 20 15 20
8 0 15 5 15 10 0 6 -7 10 -15 10 -8 0 -15 5 -15 10 0 14 23 12 39 -3 11 -10
12 -7 7 18 -5 24 -4 27 5 12 10 -17 12 -16 30 7 21 27 25 41 8 30 -21 -12 -27
18 -13 64 8 25 19 49 25 53 6 4 13 42 15 84 3 83 -13 95 -20 14 -2 -24 -5 -48
-5 -54 -3 -23 -31 32 -31 61 0 38 -16 53 -25 24 -8 -24 -25 -17 -25 11 0 10
-4 19 -8 19 -10 0 -36 80 -28 87 3 3 -2 12 -10 20 -13 14 -13 18 1 39 14 21
14 24 0 24 -9 0 -15 9 -15 23 0 12 -11 35 -25 51 -14 16 -25 33 -25 38 0 15
-50 81 -115 152 -11 12 -34 38 -51 57 -36 40 -45 46 -142 94 -45 23 -77 45
-81 58 -5 12 -5 24 0 25 5 2 9 8 9 13 0 4 -6 6 -14 3 -10 -4 -16 2 -18 18 -3
20 -4 21 -11 5z m-167 -107 c0 -5 -4 -10 -10 -10 -5 0 -10 5 -10 10 0 6 5 10
10 10 6 0 10 -4 10 -10z m-220 -29 c0 -5 -9 -11 -20 -14 -20 -5 -26 3 -13 16
9 10 33 8 33 -2z m-130 -100 c0 -5 -7 -11 -14 -14 -10 -4 -13 -1 -9 9 6 15 23
19 23 5z m-150 -31 c-14 -10 -27 -17 -29 -14 -6 5 31 33 44 33 6 1 -1 -8 -15
-19z m1013 -335 c4 -8 2 -17 -3 -20 -6 -4 -10 3 -10 14 0 25 6 27 13 6z m32
-61 c8 -44 -1 -56 -15 -20 -12 33 -13 56 -1 56 5 0 12 -16 16 -36z m-89 -411
c-10 -10 -19 5 -10 18 6 11 8 11 12 0 2 -7 1 -15 -2 -18z"/>
<path d="M1460 1920 c0 -5 5 -10 10 -10 6 0 10 5 10 10 0 6 -4 10 -10 10 -5 0
-10 -4 -10 -10z"/>
<path d="M1631 1901 c-16 -10 -6 -31 15 -31 16 0 18 9 6 27 -4 7 -13 9 -21 4z"/>
<path d="M1682 1891 c4 -13 18 -16 19 -4 0 4 -5 9 -11 12 -7 2 -11 -2 -8 -8z"/>
<path d="M1700 1806 c0 -9 5 -16 10 -16 6 0 10 4 10 9 0 6 -4 13 -10 16 -5 3
-10 -1 -10 -9z"/>
<path d="M1837 1773 c-4 -3 -7 -11 -7 -17 0 -6 5 -5 12 2 6 6 9 14 7 17 -3 3
-9 2 -12 -2z"/>
<path d="M703 1735 c0 -8 4 -12 9 -9 4 3 8 9 8 15 0 5 -4 9 -8 9 -5 0 -9 -7
-9 -15z"/>
<path d="M760 1709 c0 -5 5 -7 10 -4 6 3 10 8 10 11 0 2 -4 4 -10 4 -5 0 -10
-5 -10 -11z"/>
<path d="M2020 1699 c0 -5 5 -7 10 -4 6 3 10 8 10 11 0 2 -4 4 -10 4 -5 0 -10
-5 -10 -11z"/>
<path d="M650 1669 c0 -5 5 -7 10 -4 6 3 10 8 10 11 0 2 -4 4 -10 4 -5 0 -10
-5 -10 -11z"/>
<path d="M716 1664 c-5 -14 -4 -15 9 -4 17 14 19 20 6 20 -5 0 -12 -7 -15 -16z"/>
<path d="M1944 1655 c-10 -25 3 -44 25 -38 21 5 35 29 25 44 -9 15 -44 10 -50
-6z"/>
<path d="M221 1361 c2 -61 0 -113 -4 -117 -4 -4 -7 -1 -7 6 0 11 -3 11 -12 2
-18 -18 13 -46 41 -37 17 5 21 14 21 51 0 39 2 44 23 44 50 0 72 35 62 97 -6
36 -33 50 -64 34 -15 -9 -20 -7 -24 9 -3 11 -13 20 -22 20 -15 0 -17 -12 -14
-109z m89 40 c0 -38 -16 -81 -31 -81 -6 0 -9 7 -6 14 4 10 1 13 -7 10 -10 -4
-13 3 -10 27 7 59 54 85 54 30z"/>
<path d="M477 1463 c-4 -3 -7 -15 -7 -25 0 -13 -8 -18 -29 -18 -17 0 -33 -5
-36 -11 -5 -7 5 -8 31 -3 l37 7 -7 -33 c-8 -43 -8 -43 -40 -26 -34 18 -66 10
-66 -16 0 -16 5 -19 21 -15 18 5 20 1 17 -31 -3 -41 -21 -46 -26 -7 -4 32 -22
33 -22 2 0 -13 9 -32 20 -42 17 -15 24 -16 45 -7 20 9 25 19 25 49 0 49 18 31
22 -22 2 -33 7 -41 26 -43 13 -2 24 3 28 12 3 8 12 12 20 9 8 -3 21 3 28 13
13 17 14 17 25 -4 15 -29 39 -28 50 2 8 19 29 36 47 36 6 0 -9 -34 -27 -61
-20 -29 -35 -100 -25 -124 17 -46 86 59 86 131 0 37 13 64 32 64 4 0 8 -9 8
-19 0 -29 36 -69 50 -55 9 9 8 17 -1 32 -11 17 -11 25 0 45 30 57 -19 93 -51
37 -20 -35 -38 -39 -38 -7 0 39 -13 49 -46 37 -36 -14 -44 -26 -44 -72 0 -39
-13 -51 -24 -22 -3 9 -6 31 -6 49 0 25 -5 35 -20 40 -29 9 -39 -1 -51 -51 -6
-24 -15 -47 -20 -50 -10 -6 -12 68 -3 113 6 30 7 30 92 41 l87 10 -88 -2 c-84
-1 -87 0 -87 22 0 21 -19 30 -33 15z m-87 -117 c0 -3 -4 -8 -10 -11 -5 -3 -10
-1 -10 4 0 6 5 11 10 11 6 0 10 -2 10 -4z m283 -16 c-3 -11 -9 -20 -14 -20
-11 0 -11 3 -3 24 9 23 23 20 17 -4z m124 -2 c-3 -8 -6 -5 -6 6 -1 11 2 17 5
13 3 -3 4 -12 1 -19z m-232 -27 c-4 -17 -11 -31 -16 -31 -11 0 -11 0 2 39 14
39 23 34 14 -8z m110 -115 c-4 -20 -12 -36 -17 -36 -6 0 -7 7 -4 16 3 9 9 27
12 40 10 38 16 21 9 -20z"/>
<path d="M834 1409 c3 -17 6 -43 6 -58 1 -24 2 -24 14 -8 21 28 29 20 22 -23
-7 -47 6 -80 34 -80 15 0 23 13 35 52 18 63 12 76 -11 19 -19 -48 -32 -54 -26
-11 2 18 -2 40 -12 54 -9 14 -13 32 -10 41 8 20 -13 45 -38 45 -18 0 -20 -5
-14 -31z m36 1 c0 -5 -4 -10 -10 -10 -5 0 -10 5 -10 10 0 6 5 10 10 10 6 0 10
-4 10 -10z"/>
<path d="M2036 1372 c-3 -6 -1 -14 5 -17 15 -10 25 3 12 16 -7 7 -13 7 -17 1z"/>
<path d="M2121 1308 c0 -9 -5 -18 -11 -20 -6 -2 -6 -9 0 -18 13 -21 22 -7 17
27 -2 15 -5 21 -6 11z"/>
<path d="M818 1153 c-27 -31 -48 -109 -57 -219 -5 -58 -12 -108 -15 -112 -14
-13 -30 21 -34 75 -5 70 -14 83 -58 83 -39 0 -47 -13 -59 -97 -7 -51 5 -93 26
-93 5 0 20 11 33 24 l22 25 18 -30 c20 -34 51 -38 67 -7 l12 22 8 -21 c20 -55
76 -46 104 16 10 23 22 41 27 41 4 0 7 -3 6 -7 -5 -21 16 -74 33 -84 27 -14
61 8 79 50 14 34 30 41 30 13 0 -26 29 -62 50 -62 28 0 32 14 15 54 -19 45
-19 66 -1 66 23 0 28 17 16 60 -10 37 -14 41 -38 38 -23 -3 -30 -13 -52 -73
-61 -164 -75 -152 -74 61 0 129 3 157 17 171 13 13 19 14 31 3 25 -20 19 -79
-14 -149 -17 -35 -28 -66 -25 -69 3 -3 21 30 40 72 27 58 35 88 33 119 -3 40
-5 42 -38 45 -27 2 -41 -3 -57 -20 -22 -24 -53 -133 -53 -186 0 -38 -35 -136
-55 -152 -18 -15 -22 1 -29 115 -6 93 11 226 29 232 6 1 17 -1 24 -6 23 -15
14 -84 -19 -157 -16 -35 -25 -64 -21 -64 19 0 65 126 66 180 l0 55 -36 3 c-24
2 -40 -3 -51 -15z m299 -230 c-3 -10 -5 -4 -5 12 0 17 2 24 5 18 2 -7 2 -21 0
-30z m-450 13 c-3 -8 -9 -30 -12 -50 -6 -30 -35 -73 -35 -51 0 22 35 115 43
115 5 0 7 -6 4 -14z"/>
<path d="M1773 1153 c-7 -2 -13 -11 -13 -20 0 -21 44 -13 48 10 3 17 -10 21
-35 10z"/>
<path d="M356 1084 c-8 -60 -8 -160 1 -258 l6 -78 31 6 c44 9 49 18 51 92 1
59 4 68 23 75 21 8 22 6 22 -66 0 -86 6 -105 31 -105 32 0 50 88 47 226 l-3
119 -30 0 -30 0 -3 -73 c-3 -67 -5 -74 -28 -82 -14 -6 -27 -10 -30 -10 -2 0
-4 40 -4 90 0 78 -2 91 -19 100 -42 22 -58 13 -65 -36z"/>
<path d="M111 1074 c-11 -15 -21 -36 -21 -46 0 -11 -9 -31 -20 -45 -16 -20
-18 -29 -8 -40 8 -10 14 -11 22 -3 15 15 24 12 28 -7 2 -12 14 -18 38 -19 35
-3 35 -2 35 39 0 31 -4 42 -15 42 -8 0 -16 -10 -18 -22 -4 -27 -17 -30 -26 -6
-5 12 6 28 34 54 49 45 50 72 4 77 -25 2 -37 -3 -53 -24z m69 -1 c0 -17 -37
-63 -52 -63 -14 0 -9 43 9 62 20 23 43 23 43 1z m-90 -98 c0 -8 -4 -15 -10
-15 -5 0 -7 7 -4 15 4 8 8 15 10 15 2 0 4 -7 4 -15z"/>
<path d="M203 994 c-3 -8 -1 -26 5 -38 7 -17 7 -27 -1 -35 -13 -13 3 -34 18
-23 16 10 55 63 55 73 0 18 -18 8 -23 -13 -6 -21 -7 -21 -27 -3 -13 11 -18 25
-14 37 7 22 -4 24 -13 2z"/>
<path d="M1182 985 c-17 -37 -15 -61 10 -104 l22 -38 -23 -36 c-26 -42 -21
-57 18 -57 49 0 141 125 141 191 0 34 -17 20 -29 -23 -19 -63 -30 -73 -53 -48
-10 11 -23 20 -28 20 -34 0 -53 67 -25 90 8 7 12 16 9 21 -10 17 -31 9 -42
-16z"/>
</g>
</svg>
